<svg xmlns:mydata="http://www.w3.org/2000/svg" xmlns="http://www.w3.org/2000/svg" xmlns:xlink="http://www.w3.org/1999/xlink" mydata:contrastcolor="47141e" mydata:template="Contrast" mydata:presentation="2.5" mydata:layouttype="undefined" mydata:specialfontid="undefined" mydata:id1="572" mydata:id2="718" mydata:companyname="Renata Oliveira" mydata:companytagline="RO" version="1.1" viewBox="0 45 550 380"><defs><linearGradient x1="104.91992" y1="235" x2="445.08008" y2="235" gradientUnits="userSpaceOnUse" id="color-16145389927"><stop offset="0" stop-color="#ed4264"/><stop offset="1" stop-color="#ffedbc"/></linearGradient></defs><g fill="url(#color-16145389927)" fill-rule="none" stroke="none" stroke-width="1" stroke-linecap="butt" stroke-linejoin="miter" stroke-miterlimit="10" stroke-dasharray="" stroke-dashoffset="0" font-family="none" font-weight="none" font-size="none" text-anchor="none" style="mix-blend-mode: normal"><g data-paper-data="{&quot;isGlobalGroup&quot;:true,&quot;bounds&quot;:{&quot;x&quot;:104.91991976078312,&quot;y&quot;:114.99999999999999,&quot;width&quot;:340.1601604784338,&quot;height&quot;:240}}"><g data-paper-data="{&quot;isSecondaryText&quot;:true}" fill-rule="nonzero"><path d="M260.60448,346.85049v0c1.59923,-0.52577 2.73841,-2.01547 2.73841,-3.76805v0c0,-2.19073 -1.77449,-3.96522 -3.96522,-3.96522h-2.49743h-0.41624h-2.54124v15.88278h0.43815h2.51934v-7.95234h0.52577h1.64305c1.02964,0.13144 2.32217,1.90593 2.38789,3.72424v0v4.22811h2.95748v-3.85568v0c0,-0.08763 0.02191,-0.15335 0.02191,-0.21907c0,-2.16882 -1.68686,-3.9214 -3.81187,-4.07475zM259.42148,346.14946c-0.02191,0 -0.04381,0.02191 -0.04381,0.04381c-0.02191,0 -0.02191,0.02191 -0.04381,0.04381c-0.02191,0 -0.02191,0.02191 -0.04381,0.04381c-0.02191,0 -0.02191,0.02191 -0.04381,0.04381c-0.02191,0 -0.02191,0.02191 -0.04381,0.04381c-0.02191,0.02191 -0.04381,0.04381 -0.08763,0.06572c0,0 -0.02191,0.02191 -0.04381,0.02191c0,0.02191 -0.02191,0.04381 -0.04381,0.04381c-0.02191,0.02191 -0.02191,0.02191 -0.04381,0.04381c-0.02191,0 -0.04381,0.02191 -0.06572,0.02191c0,0.02191 -0.02191,0.02191 -0.02191,0.04381c-0.04381,0 -0.06572,0.02191 -0.10954,0.04381c0,0 -0.02191,0 -0.02191,0.02191c-0.02191,0 -0.04381,0.02191 -0.08763,0.02191c0,0.02191 -0.02191,0.02191 -0.02191,0.02191c-0.02191,0.02191 -0.06572,0.02191 -0.08763,0.02191c0,0.02191 -0.02191,0.02191 -0.02191,0.02191c-0.04381,0.02191 -0.08763,0.02191 -0.10954,0.02191c-0.02191,0.02191 -0.02191,0.02191 -0.02191,0.02191c-0.02191,0 -0.06572,0 -0.10954,0.02191h-0.02191c-0.02191,0 -0.06572,0 -0.08763,0c-0.02191,0 -0.02191,0 -0.04381,0c-0.02191,0.02191 -0.06572,0.02191 -0.10954,0.02191h-0.63531h-0.52577v-7.5142h1.16109c1.46779,0 2.32217,1.86212 2.32217,3.74614c0,1.16109 -0.35052,2.34408 -0.94201,3.06702z" data-paper-data="{&quot;glyphName&quot;:&quot;R&quot;,&quot;glyphIndex&quot;:0,&quot;firstGlyphOfWord&quot;:true,&quot;word&quot;:1}"/><path d="M290.42516,343.67394c-3.11083,0 -5.65208,2.51934 -5.65208,5.65208c0,3.11083 2.54124,5.65208 5.65208,5.65208c3.13274,0 5.65208,-2.54124 5.65208,-5.65208c0,-3.13274 -2.51934,-5.65208 -5.65208,-5.65208zM290.42516,354.75902c-2.16882,0 -2.7165,-2.43171 -2.7165,-5.43301c0,-3.0013 0.6134,-5.43301 2.7165,-5.43301c2.08119,0 2.7165,2.43171 2.7165,5.43301c0,3.0013 -0.46005,5.43301 -2.7165,5.43301z" data-paper-data="{&quot;glyphName&quot;:&quot;o&quot;,&quot;glyphIndex&quot;:1,&quot;lastGlyphOfWord&quot;:true,&quot;word&quot;:1}"/></g><g data-paper-data="{&quot;isPrimaryText&quot;:true}" fill-rule="nonzero"><path d="M117.7524,294.10269c-7.11258,0 -12.83248,5.76964 -12.83248,12.88222v20.98956c0,0.44764 0.39791,0.84555 0.84555,0.84555h2.93456c2.03927,0 3.78011,-1.74084 3.78011,-3.78011v-18.055c0,-2.93456 2.3377,-5.322 5.27226,-5.322c2.93456,0 5.27226,2.38744 5.27226,5.322c0,2.93456 -2.3377,5.27226 -5.27226,5.27226h-2.88482c-0.44764,0 -0.84555,0.39791 -0.84555,0.84555v2.93456c0,0.94503 0.29843,1.84032 0.89529,2.48691l10.09687,10.04713c0.29843,0.34817 0.84555,0.34817 1.19372,0l2.03927,-2.03927c1.44241,-1.44241 1.49215,-3.87959 0.04974,-5.322l-3.48168,-3.48168c3.48168,-2.28796 5.76964,-6.26702 5.76964,-10.74347c0,-7.11258 -5.7199,-12.88222 -12.83248,-12.88222zM117.7524,303.2048c-2.03927,0 -3.73037,1.6911 -3.73037,3.78011v2.88482c0,0.44764 0.39791,0.84555 0.84555,0.84555h2.88482c2.08901,0 3.78011,-1.6911 3.78011,-3.73037c0,-2.08901 -1.6911,-3.78011 -3.78011,-3.78011z" data-paper-data="{&quot;glyphName&quot;:&quot;R&quot;,&quot;glyphIndex&quot;:0,&quot;firstGlyphOfWord&quot;:true,&quot;word&quot;:1}"/><path d="M144.76029,294.00322c-7.06284,0 -12.83248,5.76964 -12.83248,12.88222v9.05237c0,7.11258 5.76964,12.88222 12.83248,12.88222h11.98693c0.44764,0 0.84555,-0.39791 0.84555,-0.84555v-2.93456c0,-2.08901 -1.6911,-3.78011 -3.78011,-3.78011h-9.05237c-1.44241,0 -2.68587,-0.49738 -3.73037,-1.54189c-1.0445,-1.0445 -1.54189,-2.28796 -1.54189,-3.78011v-9.05237c0,-1.49215 0.49738,-2.73561 1.54189,-3.78011c1.0445,-1.0445 2.28796,-1.54189 3.73037,-1.54189h9.05237c2.08901,0 3.78011,-1.6911 3.78011,-3.78011v-2.93456c0,-0.44764 -0.39791,-0.84555 -0.84555,-0.84555zM144.76029,303.10532c-2.03927,0 -3.73037,1.64136 -3.73037,3.73037v2.9843c0,0.44764 0.39791,0.84555 0.84555,0.84555h11.93719c2.08901,0 3.78011,-1.6911 3.78011,-3.78011c0,-2.13875 -1.6911,-3.78011 -3.78011,-3.78011zM141.87547,312.15769c-0.44764,0 -0.84555,0.39791 -0.84555,0.84555v2.9843c0,2.08901 1.6911,3.73037 3.73037,3.73037h9.05237c2.08901,0 3.78011,-1.64136 3.78011,-3.73037c0,-2.13875 -1.6911,-3.82985 -3.78011,-3.82985z" data-paper-data="{&quot;glyphName&quot;:&quot;E&quot;,&quot;glyphIndex&quot;:1,&quot;word&quot;:1}"/><path d="M184.60066,294.84877c0,-0.44764 -0.39791,-0.84555 -0.84555,-0.84555h-2.83508c-2.13875,0 -3.87959,1.74084 -3.87959,3.87959v7.06284l-9.89792,-9.89792c-0.69634,-0.6466 -1.64136,-1.0445 -2.63613,-1.0445h-4.82461c-0.44764,0 -0.84555,0.39791 -0.84555,0.84555v0.99477c0,0.99477 0.39791,1.93979 1.0445,2.63613l19.84558,19.84558c0.49738,0.49738 1.19372,0.79581 1.98953,0.79581c1.59163,0 2.88482,-1.2932 2.88482,-2.88482zM158.83623,327.97447c0,0.44764 0.39791,0.84555 0.84555,0.84555h2.83508c2.13875,0 3.87959,-1.74084 3.87959,-3.87959v-7.06284l9.89792,9.89792c0.69634,0.6466 1.64136,1.0445 2.63613,1.0445h4.82461c0.44764,0 0.84555,-0.39791 0.84555,-0.84555v-0.99477c0,-0.99477 -0.39791,-1.93979 -1.0445,-2.63613l-19.84558,-19.84558c-0.49738,-0.49738 -1.19372,-0.79581 -1.98953,-0.79581c-1.59163,0 -2.88482,1.2932 -2.88482,2.88482z" data-paper-data="{&quot;glyphName&quot;:&quot;N&quot;,&quot;glyphIndex&quot;:2,&quot;word&quot;:1}"/><path d="M198.72633,294.00322c-7.11258,0 -12.88222,5.76964 -12.88222,12.83248v21.13877c0,0.44764 0.39791,0.84555 0.84555,0.84555h2.9843c2.03927,0 3.73037,-1.6911 3.73037,-3.73037v-18.25395c0,-2.78534 2.18848,-5.27226 5.322,-5.27226c2.83508,0 5.322,2.18848 5.322,5.27226v18.25395c0,2.03927 1.6911,3.73037 3.73037,3.73037h2.9843c0.44764,0 0.84555,-0.39791 0.84555,-0.84555v-21.13877c0,-7.06284 -5.76964,-12.83248 -12.88222,-12.83248zM198.72633,303.10532c-2.08901,0 -3.78011,1.6911 -3.78011,3.73037v18.25395c0,2.03927 1.6911,3.73037 3.78011,3.73037c2.08901,0 3.78011,-1.6911 3.78011,-3.73037v-18.25395c0,-2.03927 -1.6911,-3.73037 -3.78011,-3.73037z" data-paper-data="{&quot;glyphName&quot;:&quot;A&quot;,&quot;glyphIndex&quot;:3,&quot;word&quot;:1}"/><path d="M215.93578,294.00322c-1.98953,0 -3.58116,1.74084 -3.58116,3.73037v7.6597c0,0.44764 0.39791,0.84555 0.84555,0.84555h3.08377c1.98953,-0.09948 3.58116,-1.74084 3.58116,-3.73037v-7.6597c0,-0.44764 -0.39791,-0.84555 -0.84555,-0.84555zM222.30228,294.00322c-0.44764,0 -0.84555,0.39791 -0.84555,0.84555v33.1257c0,0.44764 0.39791,0.84555 0.84555,0.84555h2.83508c2.13875,0 3.87959,-1.74084 3.87959,-3.87959v-30.09167c0,-0.44764 -0.39791,-0.84555 -0.84555,-0.84555zM231.45413,294.00322c-0.44764,0 -0.84555,0.39791 -0.84555,0.84555v7.6597c0,1.98953 1.59163,3.6309 3.58116,3.73037h3.08377c0.44764,0 0.84555,-0.39791 0.84555,-0.84555v-7.6597c0,-1.98953 -1.59163,-3.73037 -3.58116,-3.73037z" data-paper-data="{&quot;glyphName&quot;:&quot;T&quot;,&quot;glyphIndex&quot;:4,&quot;word&quot;:1}"/><path d="M251.74735,294.00322c-7.11258,0 -12.88222,5.76964 -12.88222,12.83248v21.13877c0,0.44764 0.39791,0.84555 0.84555,0.84555h2.9843c2.03927,0 3.73037,-1.6911 3.73037,-3.73037v-18.25395c0,-2.78534 2.18848,-5.27226 5.322,-5.27226c2.83508,0 5.322,2.18848 5.322,5.27226v18.25395c0,2.03927 1.6911,3.73037 3.73037,3.73037h2.9843c0.44764,0 0.84555,-0.39791 0.84555,-0.84555v-21.13877c0,-7.06284 -5.76964,-12.83248 -12.88222,-12.83248zM251.74735,303.10532c-2.08901,0 -3.78011,1.6911 -3.78011,3.73037v18.25395c0,2.03927 1.6911,3.73037 3.78011,3.73037c2.08901,0 3.78011,-1.6911 3.78011,-3.73037v-18.25395c0,-2.03927 -1.6911,-3.73037 -3.78011,-3.73037z" data-paper-data="{&quot;glyphName&quot;:&quot;A&quot;,&quot;glyphIndex&quot;:5,&quot;lastGlyphOfWord&quot;:true,&quot;word&quot;:1}"/><path d="M288.65316,294.00322c-7.11258,0 -12.83248,5.7199 -12.83248,12.83248v9.15185c0,7.11258 5.7199,12.83248 12.83248,12.83248c7.11258,0 12.83248,-5.7199 12.83248,-12.83248v-9.15185c0,-7.11258 -5.7199,-12.83248 -12.83248,-12.83248zM288.65316,301.56344c2.93456,0 5.27226,2.3377 5.27226,5.27226v9.15185c0,2.93456 -2.3377,5.27226 -5.27226,5.27226c-2.93456,0 -5.27226,-2.3377 -5.27226,-5.27226v-9.15185c0,-2.93456 2.3377,-5.27226 5.27226,-5.27226zM288.65316,303.10532c-2.08901,0 -3.73037,1.6911 -3.73037,3.73037v9.10211c0,2.08901 1.64136,3.78011 3.73037,3.78011c2.08901,0 3.73037,-1.6911 3.73037,-3.73037v-9.15185c0,-2.03927 -1.64136,-3.73037 -3.73037,-3.73037z" data-paper-data="{&quot;glyphName&quot;:&quot;O&quot;,&quot;glyphIndex&quot;:6,&quot;firstGlyphOfWord&quot;:true,&quot;word&quot;:2}"/><path d="M303.67412,294.00322c-0.44764,0 -0.84555,0.39791 -0.84555,0.84555v21.0393c0,3.58116 1.44241,6.81415 3.78011,9.15185c2.3377,2.3377 5.57069,3.78011 9.15185,3.78011h2.93456c0.44764,0 0.84555,-0.39791 0.84555,-0.84555v-2.93456c0,-2.03927 -1.74084,-3.78011 -3.78011,-3.78011c-2.93456,0 -5.37174,-2.38744 -5.37174,-5.37174v-18.00526c0,-2.13875 -1.74084,-3.87959 -3.87959,-3.87959z" data-paper-data="{&quot;glyphName&quot;:&quot;L&quot;,&quot;glyphIndex&quot;:7,&quot;word&quot;:2}"/><path d="M324.66368,294.00322c-2.13875,0 -3.87959,1.74084 -3.87959,3.87959v30.09167c0,0.44764 0.39791,0.84555 0.84555,0.84555h2.83508c2.13875,0 3.87959,-1.74084 3.87959,-3.87959v-30.09167c0,-0.44764 -0.39791,-0.84555 -0.84555,-0.84555z" data-paper-data="{&quot;glyphName&quot;:&quot;I&quot;,&quot;glyphIndex&quot;:8,&quot;word&quot;:2}"/><path d="M351.5721,294.00322c-2.13875,0 -3.78011,1.64136 -3.78011,3.78011v15.46861c0,1.49215 -0.49738,2.73561 -1.59163,3.78011l-3.18325,3.13351c-0.14921,0.14921 -0.34817,0.24869 -0.59686,0.24869c-0.24869,0 -0.44764,-0.09948 -0.59686,-0.24869l-3.13351,-3.13351c-1.0445,-1.0445 -1.54189,-2.28796 -1.54189,-3.78011v-15.46861c0,-2.13875 -1.64136,-3.78011 -3.78011,-3.78011h-2.93456c-0.44764,0 -0.84555,0.39791 -0.84555,0.84555v18.40317c0,3.58116 1.24346,6.61519 3.73037,9.10211l6.01833,5.96859c0.34817,0.34817 0.89529,0.49738 1.59163,0.49738h3.03404c0.69634,0 1.19372,-0.14921 1.54189,-0.49738l6.06807,-5.96859c2.53665,-2.53665 3.78011,-5.57069 3.78011,-9.10211v-18.40317c0,-0.44764 -0.39791,-0.84555 -0.84555,-0.84555zM342.42025,294.00322c-2.08901,0 -3.78011,1.6911 -3.78011,3.73037v15.51835c0,1.0445 0.39791,1.93979 1.14398,2.68587l2.03927,2.03927c0.14921,0.14921 0.34817,0.24869 0.59686,0.24869c0.24869,0 0.44764,-0.09948 0.59686,-0.24869l2.08901,-2.03927c0.74607,-0.74607 1.09424,-1.64136 1.09424,-2.68587v-15.51835c0,-2.03927 -1.6911,-3.73037 -3.78011,-3.73037z" data-paper-data="{&quot;glyphName&quot;:&quot;V&quot;,&quot;glyphIndex&quot;:9,&quot;word&quot;:2}"/><path d="M369.42814,294.00322c-7.06284,0 -12.83248,5.76964 -12.83248,12.88222v9.05237c0,7.11258 5.76964,12.88222 12.83248,12.88222h11.98693c0.44764,0 0.84555,-0.39791 0.84555,-0.84555v-2.93456c0,-2.08901 -1.6911,-3.78011 -3.78011,-3.78011h-9.05237c-1.44241,0 -2.68587,-0.49738 -3.73037,-1.54189c-1.0445,-1.0445 -1.54189,-2.28796 -1.54189,-3.78011v-9.05237c0,-1.49215 0.49738,-2.73561 1.54189,-3.78011c1.0445,-1.0445 2.28796,-1.54189 3.73037,-1.54189h9.05237c2.08901,0 3.78011,-1.6911 3.78011,-3.78011v-2.93456c0,-0.44764 -0.39791,-0.84555 -0.84555,-0.84555zM369.42814,303.10532c-2.03927,0 -3.73037,1.64136 -3.73037,3.73037v2.9843c0,0.44764 0.39791,0.84555 0.84555,0.84555h11.93719c2.08901,0 3.78011,-1.6911 3.78011,-3.78011c0,-2.13875 -1.6911,-3.78011 -3.78011,-3.78011zM366.54332,312.15769c-0.44764,0 -0.84555,0.39791 -0.84555,0.84555v2.9843c0,2.08901 1.6911,3.73037 3.73037,3.73037h9.05237c2.08901,0 3.78011,-1.64136 3.78011,-3.73037c0,-2.13875 -1.6911,-3.82985 -3.78011,-3.82985z" data-paper-data="{&quot;glyphName&quot;:&quot;E&quot;,&quot;glyphIndex&quot;:10,&quot;word&quot;:2}"/><path d="M387.38366,294.00322c-2.13875,0 -3.87959,1.74084 -3.87959,3.87959v30.09167c0,0.44764 0.39791,0.84555 0.84555,0.84555h2.83508c2.13875,0 3.87959,-1.74084 3.87959,-3.87959v-30.09167c0,-0.44764 -0.39791,-0.84555 -0.84555,-0.84555z" data-paper-data="{&quot;glyphName&quot;:&quot;I&quot;,&quot;glyphIndex&quot;:11,&quot;word&quot;:2}"/><path d="M405.14023,294.10269c-7.11258,0 -12.83248,5.76964 -12.83248,12.88222v20.98956c0,0.44764 0.39791,0.84555 0.84555,0.84555h2.93456c2.03927,0 3.78011,-1.74084 3.78011,-3.78011v-18.055c0,-2.93456 2.3377,-5.322 5.27226,-5.322c2.93456,0 5.27226,2.38744 5.27226,5.322c0,2.93456 -2.3377,5.27226 -5.27226,5.27226h-2.88482c-0.44764,0 -0.84555,0.39791 -0.84555,0.84555v2.93456c0,0.94503 0.29843,1.84032 0.89529,2.48691l10.09687,10.04713c0.29843,0.34817 0.84555,0.34817 1.19372,0l2.03927,-2.03927c1.44241,-1.44241 1.49215,-3.87959 0.04974,-5.322l-3.48168,-3.48168c3.48168,-2.28796 5.76964,-6.26702 5.76964,-10.74347c0,-7.11258 -5.7199,-12.88222 -12.83248,-12.88222zM405.14023,303.2048c-2.03927,0 -3.73037,1.6911 -3.73037,3.78011v2.88482c0,0.44764 0.39791,0.84555 0.84555,0.84555h2.88482c2.08901,0 3.78011,-1.6911 3.78011,-3.73037c0,-2.08901 -1.6911,-3.78011 -3.78011,-3.78011z" data-paper-data="{&quot;glyphName&quot;:&quot;R&quot;,&quot;glyphIndex&quot;:12,&quot;word&quot;:2}"/><path d="M432.19786,294.00322c-7.11258,0 -12.88222,5.76964 -12.88222,12.83248v21.13877c0,0.44764 0.39791,0.84555 0.84555,0.84555h2.9843c2.03927,0 3.73037,-1.6911 3.73037,-3.73037v-18.25395c0,-2.78534 2.18848,-5.27226 5.322,-5.27226c2.83508,0 5.322,2.18848 5.322,5.27226v18.25395c0,2.03927 1.6911,3.73037 3.73037,3.73037h2.9843c0.44764,0 0.84555,-0.39791 0.84555,-0.84555v-21.13877c0,-7.06284 -5.76964,-12.83248 -12.88222,-12.83248zM432.19786,303.10532c-2.08901,0 -3.78011,1.6911 -3.78011,3.73037v18.25395c0,2.03927 1.6911,3.73037 3.78011,3.73037c2.08901,0 3.78011,-1.6911 3.78011,-3.73037v-18.25395c0,-2.03927 -1.6911,-3.73037 -3.78011,-3.73037z" data-paper-data="{&quot;glyphName&quot;:&quot;A&quot;,&quot;glyphIndex&quot;:13,&quot;lastGlyphOfWord&quot;:true,&quot;word&quot;:2}"/></g><g data-paper-data="{&quot;isIcon&quot;:&quot;true&quot;,&quot;iconType&quot;:&quot;icon&quot;,&quot;rawIconId&quot;:&quot;1154243&quot;,&quot;selectedEffects&quot;:{&quot;container&quot;:&quot;&quot;,&quot;transformation&quot;:&quot;&quot;,&quot;pattern&quot;:&quot;&quot;},&quot;isDetailed&quot;:false,&quot;fillRule&quot;:&quot;evenodd&quot;,&quot;bounds&quot;:{&quot;x&quot;:210.5746279557863,&quot;y&quot;:114.99999999999999,&quot;width&quot;:128.85074408842735,&quot;height&quot;:151.11202646219806},&quot;iconStyle&quot;:&quot;standalone&quot;,&quot;suitableAsStandaloneIcon&quot;:true}" fill-rule="evenodd"><path d="M317.36068,125.21056c12.22044,0 22.0647,9.84425 22.0647,22.0647c0,9.50479 -5.94049,17.82149 -14.9361,20.8766v0.16973c-0.16973,0.84865 -0.16973,1.69728 -0.33946,2.54593c-0.84865,6.61941 -1.69728,14.08746 -6.78914,21.38578c-6.44968,9.16534 -16.97284,11.03235 -24.10144,11.54154c-4.58267,0.33946 -8.99561,0.50919 -13.40855,0.67892c-4.41294,0.16973 -8.82588,0.33946 -13.23882,0.67892c-5.60103,0.33946 -11.88099,1.35782 -14.9361,5.09186c-3.39457,4.07348 -4.41294,9.84425 -5.09186,16.63338c2.88539,2.20647 5.09186,5.26158 6.44968,8.65615c4.7524,11.20208 -0.67892,24.10144 -11.88099,28.85384c-11.20208,4.7524 -24.10144,-0.67892 -28.85384,-11.88099c-4.7524,-11.20208 0.67892,-24.10144 11.88099,-28.85384v-66.19409c-5.43131,-2.20647 -9.67452,-6.44968 -11.88099,-11.88099c-4.7524,-11.20208 0.67892,-24.10144 11.88099,-28.85384c11.20208,-4.7524 24.10144,0.67892 28.85384,11.88099c4.7524,11.20208 -0.67892,24.10144 -11.88099,28.85384v39.03754c6.95887,-6.27995 16.46366,-7.8075 24.10144,-8.48642c4.58267,-0.33946 9.50479,-0.50919 13.74801,-0.67892c4.24321,-0.16973 8.65615,-0.33946 12.89936,-0.67892c6.44968,-0.50919 10.01397,-1.69728 11.71126,-4.24321c2.54593,-3.73402 3.05511,-7.8075 3.73402,-13.57828c0,-0.50919 0.16973,-1.1881 0.16973,-1.86701c-7.46805,-3.73402 -12.22044,-11.37181 -12.22044,-19.6885c0,-12.22044 9.84425,-22.0647 22.0647,-22.0647zM237.58831,137.09155c0,-2.88539 -2.20647,-5.09186 -5.09186,-5.09186c-2.88539,0 -5.09186,2.20647 -5.09186,5.09186c0,2.88539 2.20647,5.09186 5.09186,5.09186c2.88539,0 5.09186,-2.20647 5.09186,-5.09186zM322.45253,147.27526c0,-2.88539 -2.20647,-5.09186 -5.09186,-5.09186c-2.88539,0 -5.09186,2.20647 -5.09186,5.09186c0,2.88539 2.20647,5.09186 5.09186,5.09186c2.88539,0 5.09186,-2.20647 5.09186,-5.09186zM227.40461,244.02047c0,2.88539 2.20647,5.09186 5.09186,5.09186c2.88539,0 5.09186,-2.20647 5.09186,-5.09186c0,-2.88539 -2.20647,-5.09186 -5.09186,-5.09186c-2.88539,0 -5.09186,2.20647 -5.09186,5.09186z" data-paper-data="{&quot;isPathIcon&quot;:true}"/></g></g></g><g class="watermark-group" style="opacity:0.040000010281801224"><path class="watermark-path" d=",.11,3,11.81,11.81,0,0,1-.64,2.93,12.34,12.34,0,0,1-1.41,2.72,11.65,11.65,0,0,1-2.13,2.32,12,12,0,0,1-2.64,1.69,13,13,0,0,1-2.91.9,12.47,12.47,0,0,1-3,.12,12.17,12.17,0,0,1-2.93-.64,11.8,11.8,0,0,1-2.72-1.38,12.19,12.19,0,0,1-4-4.79,11.85,11.85,0,0,1-.89-2.92,12.14,12.14,0,0,1-.13-3,11.54,11.54,0,0,1,.64-2.92,11.67,11.67,0,0,1,3.5-5,11.44,11.44,0,0,1,2.67-1.69,11.64,11.64,0,0,1,2.92-.91,10.71,10.71,0,0,1,3-.12,11.68,11.68,0,0,1,5.66,2,11.7,11.7,0,0,1,2.34,2.12m-1.4,8.76a13,13,0,0,1-1.22,2.32,9.68,9.68,0,0,1-1.81,2,7.44,7.44,0,0,1-2.38,1.37,6.17,6.17,0,0,1-5.11-.46,8.73,8.73,0,0,1-3.85-4.58,6.69,6.69,0,0,1-.34-2.66,6.09,6.09,0,0,1,.77-2.47,7.15,7.15,0,0,1,1.75-2.11,9.58,9.58,0,0,1,1.09-.81,8.23,8.23,0,0,1,1.12-.63,8.14,8.14,0,0,1,1.19-.46,12.71,12.71,0,0,1,1.32-.37l2,2.38a12.83,12.83,0,0,0-1.56.17,7.86,7.86,0,0,0-1.23.32,4.5,4.5,0,0,0-1,.49,6.41,6.41,0,0,0-.93.67,4.49,4.49,0,0,0-1.15,1.39,3.87,3.87,0,0,0-.45,1.58,4.12,4.12,0,0,0,.26,1.63,6.11,6.11,0,0,0,2.36,2.82,4.43,4.43,0,0,0,1.57.53,3.91,3.91,0,0,0,1.62-.17,4.71,4.71,0,0,0,1.57-.89,10.5,10.5,0,0,0,.83-.79,5.71,5.71,0,0,0,.65-.93,10.13,10.13,0,0,0,.54-1.14,12.24,12.24,0,0,0,.44-1.49l2,2.33m-14.46,4.55a8.86,8.86,0,0,0,2.78,2.22,9,9,0,0,0,3.29.94,9.15,9.15,0,0,0,3.39-.37,8.68,8.68,0,0,0,3.11-1.69,8.8,8.8,0,0,0,2.22-2.78,9.15,9.15,0,0,0,1-3.29,8.95,8.95,0,0,0-4.83-8.76,9,9,0,0,0-6.73-.57,9,9,0,0,0-5.33,4.47,8.94,8.94,0,0,0-.57,6.71,8.76,8.76,0,0,0,1.7,3.12"/><path class="watermark-path" d="-.48.12-1.09.31-1.82.57a24.37,24.37,0,0,0-2.4,1A28.35,28.35,0,0,0,140,352a20.72,20.72,0,0,0-2.71,1.94c-.7.59-1.28,1.11-1.74,1.57a15.07,15.07,0,0,0-1.1,1.22,4.09,4.09,0,0,0-.59.92,2.32,2.32,0,0,0-.22.64,1.16,1.16,0,0,0,0,.47,1.83,1.83,0,0,0,.18.29,1.15,1.15,0,0,0,1,.37,5.54,5.54,0,0,0,1.51-.38q.87-.35,1.95-.9l2.26-1.18q1.2-.65,2.49-1.29c.87-.44,1.73-.83,2.59-1.17a18.94,18.94,0,0,1,2.6-.81,9.27,9.27,0,0,1,2.46-.29,6.25,6.25,0,0,1,2.24.49,5.12,5.12,0,0,1,1.89,1.47,6.35,6.35,0,0,1,1.41,2.61,6,6,0,0,1,.09,2.6,8.3,8.3,0,0,1-.9,2.52,17.79,17.79,0,0,1-1.62,2.37,23.92,23.92,0,0,1-2,2.15c-.72.67-1.41,1.29-2.09,1.87a33.79,33.79,0,0,1-5.33,3.7,32.29,32.29,0,0,1-4.91,2.28l-3.61-4.3a21.38,21.38,0,0,0,5.39-1.87,27.2,27.2,0,0,0,5.4-3.56,21.59,21.59,0,0,0,2.38-2.27,8.67,8.67,0,0,0,1.18-1.7,2.32,2.32,0,0,0,.27-1.19,1.34,1.34,0,0,0-.28-.74,1.21,1.21,0,0,0-1-.42,4.32,4.32,0,0,0-1.55.34,15.77,15.77,0,0,0-2,.88c-.72.37-1.48.77-2.27,1.21l-2.45,1.3c-.85.45-1.7.85-2.56,1.21a22.37,22.37,0,0,1-2.54.86,10,10,0,0,1-2.43.32,5.76,5.76,0,0,1-2.2-.45,5,5,0,0,1-1.89-1.45,6.12,6.12,0,0,1-1.31-2.41,6,6,0,0,1-.1-2.41,8.28,8.28,0,0,1,.81-2.38,14.06,14.06,0,0,1,1.49-2.24,22.37,22.37,0,0,1,1.85-2.05q1-1,2-1.77c.7-.59,1.44-1.15,2.23-1.7s1.62-1.06,2.44-1.53,1.63-.91,2.43-1.3,1.58-.75,2.3-1L147,349"/><path class="watermark-path" d="-10.6-12.63,3.92,18.24-4.66,3.91-17.27-7,10.6,12.63-4.86,4.07-15.09-18,6.59-5.54,18.69,7.52-4.15-19.71,6.57-5.52,15.09,18-4.83,4.05"/><path class="watermark-path" d="-10,8.42,1.16,4.82L194.56,331l-5.68-25.89,5.42-4.55,24.51,10.09-5.42,4.55-4.55-2m-11.23,3.45,6.57-5.52-8.83-3.87,2.26,9.39"/><path class="watermark-path" d="-.48.12-1.09.31-1.82.57a24.37,24.37,0,0,0-2.4,1,26.11,26.11,0,0,0-2.7,1.47,20.72,20.72,0,0,0-2.71,1.94c-.7.59-1.28,1.11-1.74,1.57a13.39,13.39,0,0,0-1.1,1.22,4.29,4.29,0,0,0-.59.91,2.48,2.48,0,0,0-.22.65,1.16,1.16,0,0,0,0,.47,1.83,1.83,0,0,0,.18.29,1.15,1.15,0,0,0,1,.37,5.54,5.54,0,0,0,1.51-.38q.87-.34,2-.9l2.26-1.18q1.2-.64,2.49-1.29c.87-.44,1.73-.83,2.59-1.17a18.94,18.94,0,0,1,2.6-.81,9.27,9.27,0,0,1,2.46-.29,6.08,6.08,0,0,1,2.24.49,5.09,5.09,0,0,1,1.89,1.46,6.47,6.47,0,0,1,1.41,2.61,6.07,6.07,0,0,1,.09,2.61,8.3,8.3,0,0,1-.9,2.52,16.32,16.32,0,0,1-1.63,2.36,21.41,21.41,0,0,1-2,2.16c-.72.67-1.41,1.29-2.1,1.86a33.36,33.36,0,0,1-5.32,3.71,31.92,31.92,0,0,1-4.92,2.28l-3.6-4.3a21.38,21.38,0,0,0,5.39-1.87,27.2,27.2,0,0,0,5.4-3.56,21.59,21.59,0,0,0,2.38-2.27,8.67,8.67,0,0,0,1.18-1.7A2.32,2.32,0,0,0,231,293a1.34,1.34,0,0,0-.28-.74,1.21,1.21,0,0,0-1-.42,4.32,4.32,0,0,0-1.55.34,16.54,16.54,0,0,0-2,.88c-.71.37-1.47.77-2.26,1.21l-2.46,1.3c-.84.44-1.7.85-2.55,1.21a24.53,24.53,0,0,1-2.54.86A10,10,0,0,1,214,298a5.76,5.76,0,0,1-2.2-.45,5,5,0,0,1-1.89-1.45,6.12,6.12,0,0,1-1.31-2.41,5.78,5.78,0,0,1-.1-2.41,8,8,0,0,1,.81-2.38,14.61,14.61,0,0,1,1.49-2.25,22.26,22.26,0,0,1,1.85-2q1-1,2-1.77c.7-.59,1.44-1.15,2.23-1.7s1.62-1.06,2.44-1.53,1.63-.91,2.43-1.31,1.58-.74,2.3-1l3.5,4.16"/><path class="watermark-path" d="-6.29-7.5L243,277.61l6.3,7.5-4.86,4.07-15.09-18,4.85-4.08,5.49,6.55L252,263.3l-5.49-6.55,4.86-4.07,15.09,18-4.86,4.08"/><path class="watermark-path" d="-15.09-18,4.86-4.08,15.09,18-4.86,4.08"/><path class="watermark-path" d="-22.51-2.18L287.51,253l-4.85,4.08-15.1-18,5.28-4.43,22.56,2.22L285,224.5l4.83-4.06,15.09,18-5.26,4.42"/><path class="watermark-path" d="-3.66,34.48,34.48,0,0,1,5.14-2.35l3.69,4.39a20.77,20.77,0,0,0-2.37.61,20.47,20.47,0,0,0-2.61,1,25.12,25.12,0,0,0-2.76,1.49,23.9,23.9,0,0,0-2.8,2,20.42,20.42,0,0,0-2.8,2.77,12.77,12.77,0,0,0-1.64,2.52,7,7,0,0,0-.68,2.24,6,6,0,0,0,.66,3.64,8.16,8.16,0,0,0,.94,1.38,9.12,9.12,0,0,0,1.08,1.07,6.39,6.39,0,0,0,1.47.91,6.73,6.73,0,0,0,1.88.48,6.54,6.54,0,0,0,2.28-.18,11.67,11.67,0,0,0,2.74-1.07,19.38,19.38,0,0,0,3.18-2.22c.57-.48,1.06-.92,1.46-1.31a14.57,14.57,0,0,0,1-1.13,11.46,11.46,0,0,0,.81-1.05l.74-1.09-1.82-2.17-5.45,4.57-3.31-3.94,10.31-8.65,7.71,9.19a29,29,0,0,1-1.67,2.43q-1,1.26-2.1,2.52c-.74.84-1.5,1.65-2.3,2.44s-1.58,1.5-2.33,2.14a31,31,0,0,1-3.59,2.61,22.55,22.55,0,0,1-3.64,1.83,15.64,15.64,0,0,1-3.63.89,10.72,10.72,0,0,1-3.49-.15,10.45,10.45,0,0,1-3.28-1.33,12.54,12.54,0,0,1-3-2.67,12,12,0,0,1-2.08-3.44,10.45,10.45,0,0,1-.71-3.5,11.14,11.14,0,0,1,.51-3.51,15.72,15.72,0,0,1,1.56-3.43,21.62,21.62,0,0,1,2.42-3.28,30.3,30.3,0,0,1,3.15-3"/><path class="watermark-path" d="-15.1-18,4.86-4.08,11.79,14,13.13-11,3.31,3.94-18,15.1"/><path class="watermark-path" d="-2.33,5,25.55,25.55,0,0,1-4.56,4.85,26.07,26.07,0,0,1-5.6,3.67,14.79,14.79,0,0,1-5.38,1.43,10.43,10.43,0,0,1-4.94-.89,13.24,13.24,0,0,1-6.87-8.18,10.48,10.48,0,0,1,0-5,14.51,14.51,0,0,1,2.36-5,25.23,25.23,0,0,1,4.57-4.89,25,25,0,0,1,5.59-3.64,14.45,14.45,0,0,1,5.35-1.43,10.31,10.31,0,0,1,4.93.92,12.22,12.22,0,0,1,4.28,3.38m-4.91,4.11a8.36,8.36,0,0,0-2-1.72,5.5,5.5,0,0,0-2.65-.85,7.72,7.72,0,0,0-3.32.57,14.49,14.49,0,0,0-4,2.52,16.72,16.72,0,0,0-2.38,2.4,10.15,10.15,0,0,0-1.39,2.24,6.71,6.71,0,0,0-.56,2.1,5.69,5.69,0,0,0,.1,1.9,6.21,6.21,0,0,0,.61,1.69,9.85,9.85,0,0,0,1,1.44,10.48,10.48,0,0,0,1.26,1.23,6.67,6.67,0,0,0,1.57.92,6.1,6.1,0,0,0,1.85.41,6.8,6.8,0,0,0,2.15-.2,11.06,11.06,0,0,0,2.45-1,17.67,17.67,0,0,0,2.77-1.94,14.39,14.39,0,0,0,3.18-3.52,7.74,7.74,0,0,0,1.14-3.17,5.54,5.54,0,0,0-.37-2.74,8.52,8.52,0,0,0-1.36-2.3"/><path class="watermark-path" d="-2.61,1,26,26,0,0,0-2.77,1.49,23.9,23.9,0,0,0-2.8,2,21,21,0,0,0-2.8,2.78,13.19,13.19,0,0,0-1.64,2.51,7.29,7.29,0,0,0-.68,2.24,6.36,6.36,0,0,0,.06,2,5.8,5.8,0,0,0,.61,1.68,8.12,8.12,0,0,0,.93,1.38,9.16,9.16,0,0,0,1.08,1.08,6.56,6.56,0,0,0,1.48.9,6,6,0,0,0,1.87.48,6.76,6.76,0,0,0,2.28-.17,12,12,0,0,0,2.74-1.08,18.57,18.57,0,0,0,3.18-2.22c.58-.48,1.06-.92,1.46-1.31s.75-.77,1.05-1.12.57-.72.81-1.06l.73-1.09-1.82-2.17-5.45,4.57-3.3-3.94,10.3-8.65,7.71,9.19a29,29,0,0,1-1.67,2.43q-1,1.26-2.1,2.52c-.73.84-1.5,1.66-2.3,2.44s-1.57,1.5-2.33,2.14a31,31,0,0,1-3.59,2.61,22.15,22.15,0,0,1-3.64,1.83,15.56,15.56,0,0,1-3.62.89,11,11,0,0,1-3.49-.14,10.84,10.84,0,0,1-3.28-1.33,12.82,12.82,0,0,1-3-2.68,12.12,12.12,0,0,1-2.08-3.43A10.71,10.71,0,0,1,375,155a11.18,11.18,0,0,1,.51-3.51,15.51,15.51,0,0,1,1.57-3.43,21.44,21.44,0,0,1,2.42-3.28,30.19,30.19,0,0,1,3.14-3"/><path class="watermark-path" d="-2.34,5,25.29,25.29,0,0,1-4.56,4.86,26,26,0,0,1-5.59,3.67,14.84,14.84,0,0,1-5.38,1.43,10.61,10.61,0,0,1-4.95-.89,12.15,12.15,0,0,1-4.3-3.37,12,12,0,0,1-2.56-4.81,10.48,10.48,0,0,1,0-5,14.39,14.39,0,0,1,2.35-5,27.89,27.89,0,0,1,10.16-8.53,14.49,14.49,0,0,1,5.36-1.43,10.27,10.27,0,0,1,4.92.92,12.21,12.21,0,0,1,4.28,3.37m-4.91,4.12a8.17,8.17,0,0,0-2-1.72,5.58,5.58,0,0,0-2.65-.86,7.86,7.86,0,0,0-3.31.58,14.49,14.49,0,0,0-4,2.52,16.21,16.21,0,0,0-2.38,2.4,9.85,9.85,0,0,0-1.4,2.24,7,7,0,0,0-.56,2.1,6,6,0,0,0,.1,1.9,6.23,6.23,0,0,0,.62,1.69,8.49,8.49,0,0,0,1,1.44,9.18,9.18,0,0,0,1.26,1.23,6.67,6.67,0,0,0,1.57.92,6,6,0,0,0,1.84.41,6.86,6.86,0,0,0,2.16-.2,11.26,11.26,0,0,0,2.45-1,17.62,17.62,0,0,0,2.76-1.94,14.67,14.67,0,0,0,3.19-3.52,7.71,7.71,0,0,0,1.13-3.17,5.53,5.53,0,0,0-.36-2.74,8.55,8.55,0,0,0-1.37-2.3"/></g></svg>